<mxfile host="Electron" modified="2024-02-05T10:41:20.464Z" agent="Mozilla/5.0 (Windows NT 10.0; Win64; x64) AppleWebKit/537.36 (KHTML, like Gecko) draw.io/23.0.2 Chrome/120.0.6099.109 Electron/28.1.0 Safari/537.36" etag="MhPAY73BKBCLyqWjcQsv" version="23.0.2" type="device">
  <diagram name="Seite-1" id="vbSjW8dNfOakJ1vIm79n">
    <mxGraphModel dx="502" dy="382" grid="1" gridSize="10" guides="1" tooltips="1" connect="1" arrows="1" fold="1" page="1" pageScale="1" pageWidth="827" pageHeight="1169" math="0" shadow="0">
      <root>
        <mxCell id="0" />
        <mxCell id="1" parent="0" />
        <mxCell id="O4-Mr6cLiQgW-4o2GxJh-1" value="ShapeCreator" style="swimlane;fontStyle=1;align=center;verticalAlign=top;childLayout=stackLayout;horizontal=1;startSize=26;horizontalStack=0;resizeParent=1;resizeParentMax=0;resizeLast=0;collapsible=1;marginBottom=0;whiteSpace=wrap;html=1;" vertex="1" parent="1">
          <mxGeometry x="200" y="130" width="160" height="112" as="geometry" />
        </mxCell>
        <mxCell id="O4-Mr6cLiQgW-4o2GxJh-2" value="..." style="text;strokeColor=none;fillColor=none;align=left;verticalAlign=top;spacingLeft=4;spacingRight=4;overflow=hidden;rotatable=0;points=[[0,0.5],[1,0.5]];portConstraint=eastwest;whiteSpace=wrap;html=1;" vertex="1" parent="O4-Mr6cLiQgW-4o2GxJh-1">
          <mxGeometry y="26" width="160" height="26" as="geometry" />
        </mxCell>
        <mxCell id="O4-Mr6cLiQgW-4o2GxJh-3" value="" style="line;strokeWidth=1;fillColor=none;align=left;verticalAlign=middle;spacingTop=-1;spacingLeft=3;spacingRight=3;rotatable=0;labelPosition=right;points=[];portConstraint=eastwest;strokeColor=inherit;" vertex="1" parent="O4-Mr6cLiQgW-4o2GxJh-1">
          <mxGeometry y="52" width="160" height="8" as="geometry" />
        </mxCell>
        <mxCell id="O4-Mr6cLiQgW-4o2GxJh-6" value="+ createShape(): Shape" style="text;strokeColor=none;fillColor=none;align=left;verticalAlign=top;spacingLeft=4;spacingRight=4;overflow=hidden;rotatable=0;points=[[0,0.5],[1,0.5]];portConstraint=eastwest;whiteSpace=wrap;html=1;fontStyle=2" vertex="1" parent="O4-Mr6cLiQgW-4o2GxJh-1">
          <mxGeometry y="60" width="160" height="26" as="geometry" />
        </mxCell>
        <mxCell id="O4-Mr6cLiQgW-4o2GxJh-4" value="..." style="text;strokeColor=none;fillColor=none;align=left;verticalAlign=top;spacingLeft=4;spacingRight=4;overflow=hidden;rotatable=0;points=[[0,0.5],[1,0.5]];portConstraint=eastwest;whiteSpace=wrap;html=1;" vertex="1" parent="O4-Mr6cLiQgW-4o2GxJh-1">
          <mxGeometry y="86" width="160" height="26" as="geometry" />
        </mxCell>
        <mxCell id="O4-Mr6cLiQgW-4o2GxJh-7" value="CircleCrator" style="swimlane;fontStyle=1;align=center;verticalAlign=top;childLayout=stackLayout;horizontal=1;startSize=26;horizontalStack=0;resizeParent=1;resizeParentMax=0;resizeLast=0;collapsible=1;marginBottom=0;whiteSpace=wrap;html=1;" vertex="1" parent="1">
          <mxGeometry x="110" y="320" width="160" height="86" as="geometry" />
        </mxCell>
        <mxCell id="O4-Mr6cLiQgW-4o2GxJh-8" value="..." style="text;strokeColor=none;fillColor=none;align=left;verticalAlign=top;spacingLeft=4;spacingRight=4;overflow=hidden;rotatable=0;points=[[0,0.5],[1,0.5]];portConstraint=eastwest;whiteSpace=wrap;html=1;" vertex="1" parent="O4-Mr6cLiQgW-4o2GxJh-7">
          <mxGeometry y="26" width="160" height="26" as="geometry" />
        </mxCell>
        <mxCell id="O4-Mr6cLiQgW-4o2GxJh-9" value="" style="line;strokeWidth=1;fillColor=none;align=left;verticalAlign=middle;spacingTop=-1;spacingLeft=3;spacingRight=3;rotatable=0;labelPosition=right;points=[];portConstraint=eastwest;strokeColor=inherit;" vertex="1" parent="O4-Mr6cLiQgW-4o2GxJh-7">
          <mxGeometry y="52" width="160" height="8" as="geometry" />
        </mxCell>
        <mxCell id="O4-Mr6cLiQgW-4o2GxJh-10" value="+ createShape(): Shape" style="text;strokeColor=none;fillColor=none;align=left;verticalAlign=top;spacingLeft=4;spacingRight=4;overflow=hidden;rotatable=0;points=[[0,0.5],[1,0.5]];portConstraint=eastwest;whiteSpace=wrap;html=1;" vertex="1" parent="O4-Mr6cLiQgW-4o2GxJh-7">
          <mxGeometry y="60" width="160" height="26" as="geometry" />
        </mxCell>
        <mxCell id="O4-Mr6cLiQgW-4o2GxJh-13" style="edgeStyle=orthogonalEdgeStyle;rounded=0;orthogonalLoop=1;jettySize=auto;html=1;entryX=0;entryY=0.5;entryDx=0;entryDy=0;dashed=1;endArrow=open;endFill=0;" edge="1" parent="1" source="O4-Mr6cLiQgW-4o2GxJh-6" target="O4-Mr6cLiQgW-4o2GxJh-25">
          <mxGeometry relative="1" as="geometry">
            <mxPoint x="440" y="203" as="targetPoint" />
          </mxGeometry>
        </mxCell>
        <mxCell id="O4-Mr6cLiQgW-4o2GxJh-25" value="&lt;p style=&quot;margin:0px;margin-top:4px;text-align:center;&quot;&gt;&lt;i&gt;&amp;lt;&amp;lt;Interface&amp;gt;&amp;gt;&lt;/i&gt;&lt;br&gt;&lt;b&gt;Shape&lt;/b&gt;&lt;/p&gt;&lt;hr size=&quot;1&quot;&gt;&lt;p style=&quot;margin:0px;margin-left:4px;&quot;&gt;&lt;/p&gt;&lt;p style=&quot;margin:0px;margin-left:4px;&quot;&gt;+ getArea()&lt;br&gt;&lt;br&gt;&lt;/p&gt;" style="verticalAlign=top;align=left;overflow=fill;fontSize=12;fontFamily=Helvetica;html=1;whiteSpace=wrap;" vertex="1" parent="1">
          <mxGeometry x="470" y="159.5" width="110" height="87" as="geometry" />
        </mxCell>
        <mxCell id="O4-Mr6cLiQgW-4o2GxJh-34" value="RectangleCreator" style="swimlane;fontStyle=1;align=center;verticalAlign=top;childLayout=stackLayout;horizontal=1;startSize=26;horizontalStack=0;resizeParent=1;resizeParentMax=0;resizeLast=0;collapsible=1;marginBottom=0;whiteSpace=wrap;html=1;" vertex="1" parent="1">
          <mxGeometry x="290" y="320" width="160" height="86" as="geometry" />
        </mxCell>
        <mxCell id="O4-Mr6cLiQgW-4o2GxJh-35" value="..." style="text;strokeColor=none;fillColor=none;align=left;verticalAlign=top;spacingLeft=4;spacingRight=4;overflow=hidden;rotatable=0;points=[[0,0.5],[1,0.5]];portConstraint=eastwest;whiteSpace=wrap;html=1;" vertex="1" parent="O4-Mr6cLiQgW-4o2GxJh-34">
          <mxGeometry y="26" width="160" height="26" as="geometry" />
        </mxCell>
        <mxCell id="O4-Mr6cLiQgW-4o2GxJh-36" value="" style="line;strokeWidth=1;fillColor=none;align=left;verticalAlign=middle;spacingTop=-1;spacingLeft=3;spacingRight=3;rotatable=0;labelPosition=right;points=[];portConstraint=eastwest;strokeColor=inherit;" vertex="1" parent="O4-Mr6cLiQgW-4o2GxJh-34">
          <mxGeometry y="52" width="160" height="8" as="geometry" />
        </mxCell>
        <mxCell id="O4-Mr6cLiQgW-4o2GxJh-37" value="+ createShape(): Shape" style="text;strokeColor=none;fillColor=none;align=left;verticalAlign=top;spacingLeft=4;spacingRight=4;overflow=hidden;rotatable=0;points=[[0,0.5],[1,0.5]];portConstraint=eastwest;whiteSpace=wrap;html=1;" vertex="1" parent="O4-Mr6cLiQgW-4o2GxJh-34">
          <mxGeometry y="60" width="160" height="26" as="geometry" />
        </mxCell>
        <mxCell id="O4-Mr6cLiQgW-4o2GxJh-41" style="edgeStyle=orthogonalEdgeStyle;rounded=0;orthogonalLoop=1;jettySize=auto;html=1;entryX=0.516;entryY=1;entryDx=0;entryDy=0;entryPerimeter=0;endArrow=block;endFill=0;" edge="1" parent="1" source="O4-Mr6cLiQgW-4o2GxJh-7" target="O4-Mr6cLiQgW-4o2GxJh-4">
          <mxGeometry relative="1" as="geometry" />
        </mxCell>
        <mxCell id="O4-Mr6cLiQgW-4o2GxJh-42" style="edgeStyle=orthogonalEdgeStyle;rounded=0;orthogonalLoop=1;jettySize=auto;html=1;entryX=0.513;entryY=1.011;entryDx=0;entryDy=0;entryPerimeter=0;endArrow=block;endFill=0;" edge="1" parent="1" source="O4-Mr6cLiQgW-4o2GxJh-34" target="O4-Mr6cLiQgW-4o2GxJh-4">
          <mxGeometry relative="1" as="geometry" />
        </mxCell>
        <mxCell id="O4-Mr6cLiQgW-4o2GxJh-45" style="edgeStyle=orthogonalEdgeStyle;rounded=0;orthogonalLoop=1;jettySize=auto;html=1;entryX=0.5;entryY=1;entryDx=0;entryDy=0;dashed=1;endArrow=block;endFill=0;" edge="1" parent="1" source="O4-Mr6cLiQgW-4o2GxJh-43" target="O4-Mr6cLiQgW-4o2GxJh-25">
          <mxGeometry relative="1" as="geometry" />
        </mxCell>
        <mxCell id="O4-Mr6cLiQgW-4o2GxJh-43" value="Circle" style="html=1;whiteSpace=wrap;" vertex="1" parent="1">
          <mxGeometry x="450" y="280" width="70" height="30" as="geometry" />
        </mxCell>
        <mxCell id="O4-Mr6cLiQgW-4o2GxJh-47" style="edgeStyle=orthogonalEdgeStyle;rounded=0;orthogonalLoop=1;jettySize=auto;html=1;entryX=0.5;entryY=1;entryDx=0;entryDy=0;dashed=1;endArrow=block;endFill=0;" edge="1" parent="1" source="O4-Mr6cLiQgW-4o2GxJh-44" target="O4-Mr6cLiQgW-4o2GxJh-25">
          <mxGeometry relative="1" as="geometry" />
        </mxCell>
        <mxCell id="O4-Mr6cLiQgW-4o2GxJh-44" value="Rectangle" style="html=1;whiteSpace=wrap;" vertex="1" parent="1">
          <mxGeometry x="530" y="280" width="70" height="30" as="geometry" />
        </mxCell>
      </root>
    </mxGraphModel>
  </diagram>
</mxfile>
